<svg width="56" height="56" viewBox="0 0 56 56" fill="none" xmlns="http://www.w3.org/2000/svg">
<path fill-rule="evenodd" clip-rule="evenodd" d="M26.6875 11.8649C18.3612 12.533 11.8125 19.5017 11.8125 28C11.8125 36.9401 19.0599 44.1875 28 44.1875C36.4983 44.1875 43.467 37.6388 44.1351 29.3125H26.6875V11.8649ZM29.3125 11.8649V26.6875H44.1351C43.5017 18.7941 37.2059 12.4983 29.3125 11.8649ZM9.1875 28C9.1875 17.6101 17.6101 9.1875 28 9.1875C38.3899 9.1875 46.8125 17.6101 46.8125 28C46.8125 38.3899 38.3899 46.8125 28 46.8125C17.6101 46.8125 9.1875 38.3899 9.1875 28Z" fill="white"/>
</svg>
