<svg width="56" height="56" viewBox="0 0 56 56" fill="none" xmlns="http://www.w3.org/2000/svg">
<path fill-rule="evenodd" clip-rule="evenodd" d="M27.9996 9.07635L42.6988 15.2531L42.8054 15.9872L41.5065 16.1757C42.8054 15.9872 42.8053 15.9868 42.8054 15.9872L42.8073 16.0006L42.8119 16.0333L42.8285 16.1552C42.8426 16.2608 42.8625 16.4144 42.8861 16.6109C42.9335 17.0038 42.9962 17.569 43.059 18.2658C43.1843 19.6578 43.3104 21.5838 43.3123 23.7175C43.316 27.8976 42.8493 33.1977 40.6977 36.7242C39.0341 39.4508 35.9401 41.9461 33.4035 43.7058C32.112 44.6016 30.9194 45.3374 30.0495 45.8495C29.614 46.1058 29.258 46.3069 29.0093 46.4447C28.8849 46.5136 28.7872 46.5668 28.7198 46.6032L28.6416 46.6451L28.6203 46.6565L28.6124 46.6607C28.6121 46.6608 28.6113 46.6612 27.9996 45.5C27.3878 46.6612 27.3876 46.6611 27.3873 46.661L27.3787 46.6564L27.3574 46.6451L27.2793 46.6032C27.2118 46.5668 27.1142 46.5136 26.9898 46.4447C26.7411 46.3068 26.3852 46.1058 25.9497 45.8494C25.0798 45.3373 23.8873 44.6016 22.5959 43.7057C20.0595 41.946 16.9657 39.4507 15.3022 36.7241C13.1507 33.1977 12.6838 27.8977 12.6873 23.7175C12.6891 21.5839 12.8151 19.6579 12.9404 18.2659C13.0031 17.569 13.0658 17.0039 13.1131 16.611C13.1368 16.4144 13.1566 16.2609 13.1707 16.1552L13.1873 16.0334L13.1919 16.0006L13.1932 15.9915L13.1936 15.9887C13.1937 15.9884 13.1938 15.9872 14.4927 16.1757L13.1936 15.9887L13.3004 15.2531L27.9996 9.07635ZM15.6995 17.0923C15.6578 17.4501 15.6064 17.9282 15.5548 18.5011C15.4345 19.8382 15.314 21.6836 15.3123 23.7197C15.3089 27.8789 15.807 32.5113 17.5431 35.357C18.9008 37.5824 21.5955 39.8168 24.0922 41.5489C25.3174 42.3989 26.4526 43.0994 27.2813 43.5873C27.5583 43.7503 27.8005 43.8892 27.9996 44.0017C28.1987 43.8892 28.4409 43.7503 28.7179 43.5873C29.5467 43.0994 30.682 42.3989 31.9073 41.5489C34.4042 39.8168 37.0991 37.5825 38.4569 35.357C40.193 32.5114 40.691 27.879 40.6873 23.7198C40.6855 21.6837 40.565 19.8382 40.4446 18.5012C40.393 17.9282 40.3415 17.4501 40.2998 17.0923L27.9996 11.9237L15.6995 17.0923ZM27.9996 45.5L27.3873 46.661L27.9995 46.9835L28.6124 46.6607L27.9996 45.5Z" fill="white"/>
</svg>
