<svg width="56" height="56" viewBox="0 0 56 56" fill="none" xmlns="http://www.w3.org/2000/svg">
<path fill-rule="evenodd" clip-rule="evenodd" d="M9.625 19.0556C9.625 14.6175 13.1062 10.9375 17.5 10.9375C21.0832 10.9375 24.0595 13.3849 25.0357 16.6951C25.9627 16.3664 26.96 16.1875 28 16.1875C29.04 16.1875 30.0373 16.3664 30.9643 16.6951C31.9405 13.3849 34.9168 10.9375 38.5 10.9375C42.8938 10.9375 46.375 14.6175 46.375 19.0556C46.375 21.6971 45.1418 24.07 43.2169 25.5583C47.409 27.4454 50.3125 31.7696 50.3125 36.75H47.6875C47.6875 31.4157 43.5295 27.1736 38.5 27.1736V24.5486C41.3549 24.5486 43.75 22.1347 43.75 19.0556C43.75 15.9764 41.3549 13.5625 38.5 13.5625C35.9871 13.5625 33.8305 15.4327 33.3498 17.9805C35.5494 19.6407 36.9688 22.2974 36.9688 25.2778C36.9688 28.3661 35.4448 31.1067 33.108 32.7514C38.0741 34.8003 41.5625 39.7469 41.5625 45.5H38.9375C38.9375 39.3324 34.0212 34.3681 28 34.3681C21.9788 34.3681 17.0625 39.3324 17.0625 45.5H14.4375C14.4375 39.7469 17.9259 34.8003 22.892 32.7514C20.5552 31.1067 19.0312 28.3661 19.0312 25.2778C19.0312 22.2974 20.4506 19.6407 22.6502 17.9805C22.1695 15.4327 20.0129 13.5625 17.5 13.5625C14.6451 13.5625 12.25 15.9764 12.25 19.0556C12.25 22.1347 14.6451 24.5486 17.5 24.5486V27.1736C12.4705 27.1736 8.3125 31.4157 8.3125 36.75H5.6875C5.6875 31.7696 8.59098 27.4454 12.7831 25.5583C10.8582 24.07 9.625 21.6971 9.625 19.0556ZM28 18.8125C24.5159 18.8125 21.6562 21.6875 21.6562 25.2778C21.6562 28.868 24.5159 31.7431 28 31.7431C31.4841 31.7431 34.3438 28.868 34.3438 25.2778C34.3438 21.6875 31.4841 18.8125 28 18.8125Z" fill="white"/>
</svg>
